<svg width="262" height="35" viewBox="0 0 262 35" fill="none" xmlns="http://www.w3.org/2000/svg">
<path d="M7.92614 27L0.767045 0.818181H3.98864L9.46023 22.142H9.71591L15.2898 0.818181H18.8693L24.4432 22.142H24.6989L30.1705 0.818181H33.392L26.233 27H22.9602L17.1818 6.13636H16.9773L11.1989 27H7.92614ZM43.3381 27.4091C41.446 27.4091 39.8139 26.9915 38.4418 26.1562C37.0781 25.3125 36.0256 24.1364 35.2841 22.6278C34.5511 21.1108 34.1847 19.3466 34.1847 17.3352C34.1847 15.3239 34.5511 13.5511 35.2841 12.017C36.0256 10.4744 37.0568 9.27273 38.3778 8.41193C39.7074 7.54261 41.2585 7.10795 43.0312 7.10795C44.054 7.10795 45.0639 7.27841 46.0611 7.61932C47.0582 7.96023 47.9659 8.5142 48.7841 9.28125C49.6023 10.0398 50.2543 11.0455 50.7401 12.2983C51.2259 13.5511 51.4688 15.0937 51.4688 16.9261V18.2045H36.3324V15.5966H48.4006C48.4006 14.4886 48.179 13.5 47.7358 12.6307C47.3011 11.7614 46.679 11.0753 45.8693 10.5724C45.0682 10.0696 44.1222 9.81818 43.0312 9.81818C41.8295 9.81818 40.7898 10.1165 39.9119 10.7131C39.0426 11.3011 38.3736 12.0682 37.9048 13.0142C37.4361 13.9602 37.2017 14.9744 37.2017 16.0568V17.7955C37.2017 19.2784 37.4574 20.5355 37.9688 21.5668C38.4886 22.5895 39.2088 23.3693 40.1293 23.9062C41.0497 24.4347 42.1193 24.6989 43.3381 24.6989C44.1307 24.6989 44.8466 24.5881 45.4858 24.3665C46.1335 24.1364 46.6918 23.7955 47.1605 23.3438C47.6293 22.8835 47.9915 22.3125 48.2472 21.6307L51.1619 22.4489C50.8551 23.4375 50.3395 24.3068 49.6151 25.0568C48.8906 25.7983 47.9957 26.3778 46.9304 26.7955C45.8651 27.2045 44.6676 27.4091 43.3381 27.4091ZM56.4673 27V0.818181H59.4844V10.483H59.7401C59.9616 10.142 60.2685 9.70739 60.6605 9.17898C61.0611 8.64205 61.6321 8.16477 62.3736 7.74716C63.1236 7.32102 64.1378 7.10795 65.4162 7.10795C67.0696 7.10795 68.527 7.52131 69.7884 8.34801C71.0497 9.17472 72.0341 10.3466 72.7415 11.8636C73.4489 13.3807 73.8026 15.1705 73.8026 17.233C73.8026 19.3125 73.4489 21.1151 72.7415 22.6406C72.0341 24.1577 71.054 25.3338 69.8011 26.169C68.5483 26.9957 67.1037 27.4091 65.4673 27.4091C64.206 27.4091 63.196 27.2003 62.4375 26.7827C61.679 26.3565 61.0952 25.875 60.6861 25.3381C60.277 24.7926 59.9616 24.3409 59.7401 23.983H59.3821V27H56.4673ZM59.4332 17.1818C59.4332 18.6648 59.6506 19.973 60.0852 21.1065C60.5199 22.2315 61.1548 23.1136 61.9901 23.7528C62.8253 24.3835 63.848 24.6989 65.0582 24.6989C66.3196 24.6989 67.3722 24.3665 68.2159 23.7017C69.0682 23.0284 69.7074 22.125 70.1335 20.9915C70.5682 19.8494 70.7855 18.5795 70.7855 17.1818C70.7855 15.8011 70.5724 14.5568 70.1463 13.4489C69.7287 12.3324 69.0938 11.4503 68.2415 10.8026C67.3977 10.1463 66.3366 9.81818 65.0582 9.81818C63.831 9.81818 62.7997 10.1293 61.9645 10.7514C61.1293 11.3651 60.4986 12.2259 60.0724 13.3338C59.6463 14.4332 59.4332 15.7159 59.4332 17.1818ZM87.2131 27.358C85.5256 27.358 84.0213 27.0682 82.7003 26.4886C81.3878 25.9091 80.3438 25.1037 79.5682 24.0724C78.8011 23.0327 78.3835 21.8267 78.3153 20.4545H81.5369C81.6051 21.2983 81.8949 22.027 82.4062 22.6406C82.9176 23.2457 83.5866 23.7145 84.4134 24.0469C85.2401 24.3793 86.1563 24.5455 87.1619 24.5455C88.2869 24.5455 89.2841 24.3494 90.1534 23.9574C91.0227 23.5653 91.7045 23.0199 92.1989 22.321C92.6932 21.6222 92.9403 20.8125 92.9403 19.892C92.9403 18.929 92.7017 18.081 92.2244 17.348C91.7472 16.6065 91.0483 16.027 90.1278 15.6094C89.2074 15.1918 88.0824 14.983 86.7528 14.983H84.6562V12.1705H86.7528C87.7926 12.1705 88.7045 11.983 89.4886 11.608C90.2813 11.233 90.8991 10.7045 91.3423 10.0227C91.794 9.34091 92.0199 8.53977 92.0199 7.61932C92.0199 6.73295 91.8239 5.96165 91.4318 5.3054C91.0398 4.64915 90.4858 4.13778 89.7699 3.77131C89.0625 3.40483 88.2273 3.22159 87.2642 3.22159C86.3608 3.22159 85.5085 3.38778 84.7074 3.72017C83.9148 4.04403 83.267 4.51705 82.7642 5.1392C82.2614 5.75284 81.9886 6.49432 81.946 7.36364H78.8778C78.929 5.99148 79.3423 4.78977 80.1179 3.75852C80.8935 2.71875 81.9077 1.90909 83.1605 1.32955C84.4219 0.749999 85.8068 0.460226 87.3153 0.460226C88.9347 0.460226 90.3239 0.788351 91.483 1.4446C92.642 2.09233 93.5327 2.94886 94.1548 4.0142C94.777 5.07955 95.0881 6.23011 95.0881 7.46591C95.0881 8.94034 94.7003 10.1974 93.9247 11.2372C93.1577 12.277 92.1136 12.9972 90.7926 13.3977V13.6023C92.446 13.875 93.7372 14.5781 94.6662 15.7116C95.5952 16.8366 96.0597 18.2301 96.0597 19.892C96.0597 21.3153 95.6719 22.5938 94.8963 23.7273C94.1293 24.8523 93.081 25.7386 91.7514 26.3864C90.4219 27.0341 88.9091 27.358 87.2131 27.358Z" fill="white"/>
<path d="M110.442 3.63068V0.818181H130.078V3.63068H121.845V27H118.675V3.63068H110.442ZM139.692 27.4091C137.919 27.4091 136.364 26.9872 135.026 26.1435C133.696 25.2997 132.656 24.1193 131.906 22.6023C131.165 21.0852 130.794 19.3125 130.794 17.2841C130.794 15.2386 131.165 13.4531 131.906 11.9276C132.656 10.402 133.696 9.21733 135.026 8.37358C136.364 7.52983 137.919 7.10795 139.692 7.10795C141.464 7.10795 143.016 7.52983 144.345 8.37358C145.683 9.21733 146.723 10.402 147.464 11.9276C148.214 13.4531 148.589 15.2386 148.589 17.2841C148.589 19.3125 148.214 21.0852 147.464 22.6023C146.723 24.1193 145.683 25.2997 144.345 26.1435C143.016 26.9872 141.464 27.4091 139.692 27.4091ZM139.692 24.6989C141.038 24.6989 142.146 24.3537 143.016 23.6634C143.885 22.973 144.528 22.0653 144.946 20.9403C145.364 19.8153 145.572 18.5966 145.572 17.2841C145.572 15.9716 145.364 14.7486 144.946 13.6151C144.528 12.4815 143.885 11.5653 143.016 10.8665C142.146 10.1676 141.038 9.81818 139.692 9.81818C138.345 9.81818 137.237 10.1676 136.368 10.8665C135.499 11.5653 134.855 12.4815 134.438 13.6151C134.02 14.7486 133.811 15.9716 133.811 17.2841C133.811 18.5966 134.02 19.8153 134.438 20.9403C134.855 22.0653 135.499 22.973 136.368 23.6634C137.237 24.3537 138.345 24.6989 139.692 24.6989ZM161.121 34.7727C159.664 34.7727 158.411 34.5852 157.363 34.2102C156.314 33.8438 155.441 33.358 154.742 32.7528C154.051 32.1563 153.502 31.517 153.093 30.8352L155.496 29.1477C155.769 29.5057 156.114 29.9148 156.532 30.375C156.949 30.8438 157.52 31.2486 158.245 31.5895C158.978 31.9389 159.936 32.1136 161.121 32.1136C162.706 32.1136 164.015 31.7301 165.046 30.9631C166.077 30.196 166.593 28.9943 166.593 27.358V23.3693H166.337C166.115 23.7273 165.8 24.1705 165.391 24.6989C164.99 25.2188 164.411 25.6832 163.652 26.0923C162.902 26.4929 161.888 26.6932 160.61 26.6932C159.025 26.6932 157.601 26.3182 156.34 25.5682C155.087 24.8182 154.094 23.7273 153.361 22.2955C152.637 20.8636 152.275 19.125 152.275 17.0795C152.275 15.0682 152.628 13.3168 153.336 11.8253C154.043 10.3253 155.027 9.16619 156.289 8.34801C157.55 7.52131 159.007 7.10795 160.661 7.10795C161.939 7.10795 162.953 7.32102 163.703 7.74716C164.462 8.16477 165.042 8.64205 165.442 9.17898C165.851 9.70739 166.167 10.142 166.388 10.483H166.695V7.36364H169.61V27.5625C169.61 29.25 169.226 30.6222 168.459 31.679C167.701 32.7443 166.678 33.5241 165.391 34.0185C164.113 34.5213 162.689 34.7727 161.121 34.7727ZM161.019 23.983C162.229 23.983 163.252 23.706 164.087 23.152C164.922 22.598 165.557 21.8011 165.992 20.7614C166.426 19.7216 166.644 18.4773 166.644 17.0284C166.644 15.6136 166.431 14.3651 166.005 13.2827C165.578 12.2003 164.948 11.3523 164.113 10.7386C163.277 10.125 162.246 9.81818 161.019 9.81818C159.74 9.81818 158.675 10.142 157.823 10.7898C156.979 11.4375 156.344 12.3068 155.918 13.3977C155.5 14.4886 155.292 15.6989 155.292 17.0284C155.292 18.392 155.505 19.598 155.931 20.6463C156.365 21.6861 157.005 22.5043 157.848 23.1009C158.701 23.6889 159.757 23.983 161.019 23.983ZM183.365 27.4091C181.473 27.4091 179.841 26.9915 178.469 26.1562C177.105 25.3125 176.053 24.1364 175.311 22.6278C174.578 21.1108 174.212 19.3466 174.212 17.3352C174.212 15.3239 174.578 13.5511 175.311 12.017C176.053 10.4744 177.084 9.27273 178.405 8.41193C179.735 7.54261 181.286 7.10795 183.059 7.10795C184.081 7.10795 185.091 7.27841 186.088 7.61932C187.086 7.96023 187.993 8.5142 188.811 9.28125C189.63 10.0398 190.282 11.0455 190.767 12.2983C191.253 13.5511 191.496 15.0937 191.496 16.9261V18.2045H176.36V15.5966H188.428C188.428 14.4886 188.206 13.5 187.763 12.6307C187.328 11.7614 186.706 11.0753 185.897 10.5724C185.096 10.0696 184.15 9.81818 183.059 9.81818C181.857 9.81818 180.817 10.1165 179.939 10.7131C179.07 11.3011 178.401 12.0682 177.932 13.0142C177.463 13.9602 177.229 14.9744 177.229 16.0568V17.7955C177.229 19.2784 177.485 20.5355 177.996 21.5668C178.516 22.5895 179.236 23.3693 180.157 23.9062C181.077 24.4347 182.147 24.6989 183.365 24.6989C184.158 24.6989 184.874 24.5881 185.513 24.3665C186.161 24.1364 186.719 23.7955 187.188 23.3438C187.657 22.8835 188.019 22.3125 188.275 21.6307L191.189 22.4489C190.882 23.4375 190.367 24.3068 189.642 25.0568C188.918 25.7983 188.023 26.3778 186.958 26.7955C185.892 27.2045 184.695 27.4091 183.365 27.4091ZM204.625 7.36364V9.92045H194.449V7.36364H204.625ZM197.415 2.65909H200.432V21.375C200.432 22.2273 200.556 22.8665 200.803 23.2926C201.059 23.7102 201.382 23.9915 201.775 24.1364C202.175 24.2727 202.597 24.3409 203.04 24.3409C203.373 24.3409 203.645 24.3239 203.858 24.2898C204.071 24.2472 204.242 24.2131 204.37 24.1875L204.983 26.8977C204.779 26.9744 204.493 27.0511 204.127 27.1278C203.76 27.2131 203.296 27.2557 202.733 27.2557C201.881 27.2557 201.046 27.0724 200.228 26.706C199.418 26.3395 198.745 25.7812 198.208 25.0312C197.679 24.2812 197.415 23.3352 197.415 22.1932V2.65909ZM212.603 15.1875V27H209.586V0.818181H212.603V10.4318H212.858C213.319 9.41761 214.009 8.61222 214.929 8.01562C215.858 7.41051 217.094 7.10795 218.637 7.10795C219.975 7.10795 221.147 7.37642 222.152 7.91335C223.158 8.44176 223.938 9.25568 224.492 10.3551C225.054 11.446 225.336 12.8352 225.336 14.5227V27H222.319V14.7273C222.319 13.1676 221.914 11.9616 221.104 11.1094C220.303 10.2486 219.191 9.81818 217.767 9.81818C216.779 9.81818 215.892 10.027 215.108 10.4446C214.333 10.8622 213.719 11.4716 213.267 12.2727C212.824 13.0739 212.603 14.0455 212.603 15.1875ZM239.088 27.4091C237.196 27.4091 235.564 26.9915 234.192 26.1562C232.828 25.3125 231.776 24.1364 231.034 22.6278C230.301 21.1108 229.935 19.3466 229.935 17.3352C229.935 15.3239 230.301 13.5511 231.034 12.017C231.776 10.4744 232.807 9.27273 234.128 8.41193C235.457 7.54261 237.009 7.10795 238.781 7.10795C239.804 7.10795 240.814 7.27841 241.811 7.61932C242.808 7.96023 243.716 8.5142 244.534 9.28125C245.352 10.0398 246.004 11.0455 246.49 12.2983C246.976 13.5511 247.219 15.0937 247.219 16.9261V18.2045H232.082V15.5966H244.151C244.151 14.4886 243.929 13.5 243.486 12.6307C243.051 11.7614 242.429 11.0753 241.619 10.5724C240.818 10.0696 239.872 9.81818 238.781 9.81818C237.58 9.81818 236.54 10.1165 235.662 10.7131C234.793 11.3011 234.124 12.0682 233.655 13.0142C233.186 13.9602 232.952 14.9744 232.952 16.0568V17.7955C232.952 19.2784 233.207 20.5355 233.719 21.5668C234.239 22.5895 234.959 23.3693 235.879 23.9062C236.8 24.4347 237.869 24.6989 239.088 24.6989C239.881 24.6989 240.597 24.5881 241.236 24.3665C241.884 24.1364 242.442 23.7955 242.911 23.3438C243.379 22.8835 243.741 22.3125 243.997 21.6307L246.912 22.4489C246.605 23.4375 246.089 24.3068 245.365 25.0568C244.641 25.7983 243.746 26.3778 242.68 26.7955C241.615 27.2045 240.418 27.4091 239.088 27.4091ZM251.808 27V7.36364H254.723V10.3295H254.928C255.286 9.35795 255.933 8.5696 256.871 7.96449C257.808 7.35937 258.865 7.05682 260.041 7.05682C260.263 7.05682 260.54 7.06108 260.872 7.0696C261.205 7.07812 261.456 7.09091 261.626 7.10795V10.1761C261.524 10.1506 261.29 10.1122 260.923 10.0611C260.565 10.0014 260.186 9.97159 259.786 9.97159C258.831 9.97159 257.979 10.1719 257.229 10.5724C256.487 10.9645 255.899 11.5099 255.464 12.2088C255.038 12.8991 254.825 13.6875 254.825 14.5739V27H251.808Z" fill="#F2A93B"/>
</svg>
